<?xml version="1.0" encoding="UTF-8" standalone="no"?>
<!DOCTYPE svg PUBLIC "-//W3C//DTD SVG 20010904//EN"
              "http://www.w3.org/TR/2001/REC-SVG-20010904/DTD/svg10.dtd">

<svg xmlns="http://www.w3.org/2000/svg"
     width="3.55556in" height="3.55556in"
     viewBox="0 0 320 320">
  <path id="Selecció #1"
        fill="black" stroke="black" stroke-width="1"
        d="M 140.00,0.26
           C 117.26,4.25 101.64,8.45 81.25,19.83
             41.31,42.11 12.04,81.33 3.00,126.25
             1.23,135.07 0.01,140.89 0.00,150.00
             -0.04,173.58 -0.30,188.20 7.60,211.25
             24.69,261.08 64.09,299.85 115.00,314.28
             123.99,316.82 138.27,319.89 147.50,320.00
             147.50,320.00 170.00,320.00 170.00,320.00
             191.98,319.96 218.30,311.28 237.50,300.86
             255.64,291.04 272.14,277.38 285.00,261.25
             338.65,193.96 331.09,92.44 263.75,37.01
             249.88,25.60 234.36,16.24 217.50,9.94
             203.20,4.60 185.30,0.03 170.00,0.26
             170.00,0.26 140.00,0.26 140.00,0.26 Z
           M 120.00,105.00
           C 120.00,105.00 132.50,53.75 132.50,53.75
             132.50,53.75 157.50,53.75 157.50,53.75
             157.50,53.75 157.50,152.50 157.50,152.50
             157.50,152.50 141.25,152.50 141.25,152.50
             141.25,152.50 142.50,71.25 142.50,71.25
             142.50,71.25 137.84,90.00 137.84,90.00
             137.84,90.00 128.75,126.25 128.75,126.25
             128.75,126.25 113.14,124.98 113.14,124.98
             113.14,124.98 107.96,111.25 107.96,111.25
             107.96,111.25 98.75,71.25 98.75,71.25
             98.75,71.25 98.75,90.00 98.75,90.00
             98.75,90.00 98.75,152.50 98.75,152.50
             98.75,152.50 82.50,152.50 82.50,152.50
             82.50,152.50 82.50,53.75 82.50,53.75
             82.50,53.75 106.80,55.03 106.80,55.03
             106.80,55.03 111.61,67.50 111.61,67.50
             111.61,67.50 120.00,105.00 120.00,105.00 Z
           M 172.50,132.50
           C 172.50,132.50 173.75,148.75 173.75,148.75
             181.16,144.79 180.00,139.99 180.00,132.50
             180.00,132.50 185.00,132.50 185.00,132.50
             185.00,132.50 185.00,152.50 185.00,152.50
             181.41,151.81 181.41,152.14 180.00,148.75
             178.69,149.66 177.85,150.53 176.25,151.19
             165.40,155.74 167.50,138.11 167.50,132.50
             167.50,132.50 172.50,132.50 172.50,132.50 Z
           M 207.50,138.74
           C 207.50,138.74 195.00,136.25 195.00,136.25
             200.53,141.88 205.11,140.47 206.68,145.15
             208.26,149.85 203.90,152.02 200.00,152.35
             194.26,152.81 191.99,151.40 190.00,146.25
             190.00,146.25 202.50,148.75 202.50,148.75
             198.39,142.19 191.90,144.29 191.29,138.74
             190.75,133.93 200.88,127.85 207.50,138.74 Z
           M 231.25,143.75
           C 231.25,143.75 217.50,143.75 217.50,143.75
             221.26,150.36 223.54,147.07 230.00,146.25
             224.54,156.46 212.01,152.89 212.01,142.50
             212.01,135.11 219.33,130.01 225.97,133.97
             229.51,136.07 230.36,140.06 231.25,143.75 Z
           M 217.50,140.00
           C 217.50,140.00 225.00,140.00 225.00,140.00
             225.00,140.00 225.00,136.25 225.00,136.25
             220.64,136.61 219.99,136.29 217.50,140.00 Z
           M 245.00,195.00
           C 245.00,195.00 225.00,200.00 225.00,200.00
             222.64,194.56 220.20,189.25 214.98,185.92
             206.69,180.64 197.67,185.95 193.53,193.75
             187.56,204.99 187.60,225.91 192.64,237.50
             193.70,239.95 194.74,241.68 196.53,243.70
             208.78,257.53 222.16,246.79 226.25,232.50
             226.25,232.50 247.50,236.25 247.50,236.25
             244.07,244.83 241.01,253.21 233.64,259.34
             218.49,271.94 190.81,269.85 177.91,254.95
             167.03,242.40 167.48,226.70 167.50,211.25
             167.51,199.26 170.50,185.50 179.15,176.62
             191.35,164.12 217.45,162.51 231.25,173.16
             238.95,179.11 241.90,186.12 245.00,195.00 Z
           M 150.00,167.50
           C 150.00,167.50 150.00,183.75 150.00,183.75
             150.00,183.75 127.50,183.75 127.50,183.75
             127.50,183.75 127.50,250.00 127.50,250.00
             127.50,250.00 150.00,250.00 150.00,250.00
             150.00,250.00 150.00,266.25 150.00,266.25
             150.00,266.25 82.50,266.25 82.50,266.25
             82.50,266.25 82.50,250.00 82.50,250.00
             82.50,250.00 105.00,250.00 105.00,250.00
             105.00,250.00 105.00,183.75 105.00,183.75
             105.00,183.75 82.50,183.75 82.50,183.75
             82.50,183.75 82.50,167.50 82.50,167.50
             82.50,167.50 150.00,167.50 150.00,167.50 Z" />
     <path id="Selecció"
           fill="white" stroke="white" stroke-width="1"
           d="M 105.50,57.02
              C 108.31,58.95 110.51,67.63 111.37,71.00
                111.37,71.00 120.00,106.00 120.00,106.00
                120.00,106.00 133.00,55.00 133.00,55.00
                133.00,55.00 156.00,55.00 156.00,55.00
                156.00,55.00 156.00,151.00 156.00,151.00
                156.00,151.00 142.00,151.00 142.00,151.00
                142.00,151.00 143.00,130.00 143.00,130.00
                143.00,130.00 143.00,103.00 143.00,103.00
                143.00,103.00 144.00,71.00 144.00,71.00
                139.63,73.83 139.32,80.24 138.13,85.00
                138.13,85.00 131.37,112.00 131.37,112.00
                130.77,114.40 129.23,121.84 127.86,123.21
                125.68,125.97 116.94,124.76 114.50,123.21
                113.12,122.00 112.48,120.48 111.83,118.98
                108.03,110.25 105.41,95.67 103.12,86.00
                101.92,80.95 101.42,75.03 98.00,71.00
                98.00,71.00 98.00,151.00 98.00,151.00
                98.00,151.00 84.00,151.00 84.00,151.00
                84.00,151.00 84.00,55.00 84.00,55.00
                87.76,55.00 102.98,55.28 105.50,57.02 Z
              M 173.00,133.00
              C 173.00,135.52 172.38,143.69 174.58,145.09
                175.34,145.57 176.06,145.49 176.83,145.09
                180.52,143.16 180.00,136.50 180.00,133.00
                180.00,133.00 185.00,133.00 185.00,133.00
                185.00,133.00 185.00,152.00 185.00,152.00
                185.00,152.00 181.00,149.00 181.00,149.00
                179.32,149.56 175.55,151.14 174.02,151.13
                166.37,151.11 168.00,138.01 168.00,133.00
                168.00,133.00 173.00,133.00 173.00,133.00 Z
              M 192.66,137.09
              C 194.13,132.59 201.97,130.90 206.00,138.00
                206.00,138.00 197.00,137.00 197.00,137.00
                200.67,141.17 206.14,142.89 206.14,146.99
                206.14,151.90 195.37,155.50 191.00,146.99
                191.00,146.99 201.00,148.00 201.00,148.00
                196.79,142.74 191.16,141.66 192.66,137.09 Z
              M 212.66,140.00
              C 215.38,130.67 228.51,130.14 230.00,143.00
                230.00,143.00 218.00,143.00 218.00,143.00
                221.02,148.85 223.26,147.44 229.00,147.00
                220.34,157.69 210.22,148.40 212.66,140.00 Z
              M 218.00,140.00
              C 218.00,140.00 225.00,140.00 225.00,140.00
                222.58,135.84 220.48,135.93 218.00,140.00 Z
              M 232.99,258.62
              C 218.33,270.61 190.65,268.55 178.33,253.99
                167.04,240.66 168.97,224.18 169.00,208.00
                169.02,193.79 173.86,179.17 187.00,171.90
                207.31,160.68 240.23,168.89 243.00,195.00
                243.00,195.00 225.00,199.00 225.00,199.00
                220.17,183.81 205.73,176.50 194.53,191.00
                186.46,201.45 186.17,226.46 192.00,238.00
                195.15,244.26 202.34,251.64 210.00,250.63
                215.11,249.96 219.45,246.03 222.37,242.00
                223.83,239.98 225.36,236.27 227.39,235.04
                230.27,233.29 242.24,236.31 246.00,237.00
                243.35,244.60 239.32,253.45 232.99,258.62 Z
              M 149.00,169.00
              C 149.00,169.00 149.00,183.00 149.00,183.00
                149.00,183.00 126.00,183.00 126.00,183.00
                126.00,183.00 126.00,251.00 126.00,251.00
                126.00,251.00 149.00,251.00 149.00,251.00
                149.00,251.00 149.00,265.00 149.00,265.00
                149.00,265.00 84.00,265.00 84.00,265.00
                84.00,265.00 84.00,251.00 84.00,251.00
                84.00,251.00 106.00,251.00 106.00,251.00
                106.00,251.00 106.00,183.00 106.00,183.00
                106.00,183.00 84.00,183.00 84.00,183.00
                84.00,183.00 84.00,169.00 84.00,169.00
                84.00,169.00 149.00,169.00 149.00,169.00 Z" />
</svg>
